<svg id="Layer_1" data-name="Layer 1" xmlns="http://www.w3.org/2000/svg" viewBox="0 0 1380.57 1318.55"><defs><style>.cls-1{fill:#e91e63;}.cls-2{fill:#2b76e2;}</style></defs><path class="cls-1" d="M287,50.5c20.48,0,31.86,11.38,36.42,30.74l80.82,331.27c2.27,11.38,11.39,11.38,13.67,0L498.73,81.24c4.55-19.36,15.93-30.74,36.42-30.74H770.79q34.15,0,34.15,34.16V813.2c0,21.63-11.38,34.15-34.15,34.15H643.3c-21.63,0-34.16-12.52-34.16-34.15V364.7c0-8-10.24-9.12-12.51-1.15L486.2,817.75c-4.55,19.35-17.07,29.6-37.56,29.6H373.5c-20.48,0-33-10.25-37.56-29.6L225.52,363.55c-2.28-8-12.52-6.83-12.52,1.15V813.2c0,21.63-11.39,34.15-34.15,34.15H51.35c-22.76,0-34.14-12.52-34.14-34.15V84.66q0-34.17,34.14-34.16Z" transform="translate(-17.21 -50.5)"/><path class="cls-1" d="M879.84,572.2c20.48,0,31.86,11.38,36.42,30.74L997.08,934.2c2.27,11.39,11.38,11.39,13.67,0l80.82-331.26c4.55-19.36,15.93-30.74,36.42-30.74h235.63q34.17,0,34.16,34.16V1334.9c0,21.63-11.38,34.15-34.16,34.15H1236.14c-21.63,0-34.16-12.52-34.16-34.15V886.39c0-8-10.24-9.11-12.51-1.14L1079,1339.45c-4.55,19.35-17.07,29.6-37.56,29.6H966.34c-20.48,0-33-10.25-37.56-29.6L818.36,885.25c-2.28-8-12.53-6.83-12.53,1.14V1334.9c0,21.63-11.38,34.15-34.14,34.15H644.19c-22.76,0-34.14-12.52-34.14-34.15V606.36q0-34.17,34.14-34.16Z" transform="translate(-17.21 -50.5)"/><path class="cls-2" d="M1124.63,331.33H1048A16.93,16.93,0,0,0,1031,348.26v87.26a34.83,34.83,0,0,1-34.73,34.73H978.06a34.14,34.14,0,0,1-23.88-10.42A34.6,34.6,0,0,1,954.4,411c4.54-4.54,26.69-7.56,39.48-9.08a17,17,0,0,0,15.18-16.84V347a17,17,0,0,0-15.19-16.84c-12.79-1.51-34.93-4.53-39.47-9.08a34.69,34.69,0,1,1,59.26-24.52l.07,0a16.9,16.9,0,0,0,16.87,16.67h35.57a16.8,16.8,0,0,0,16.7-15.82h-23.46l23.45-.86a100.63,100.63,0,0,0-8-40.39,104.4,104.4,0,0,0-55.57-55.56,103.32,103.32,0,0,0-81,0A105.05,105.05,0,0,0,883,256.22a100.79,100.79,0,0,0-8.24,40.38,101.57,101.57,0,0,0,18.71,59.79,16.48,16.48,0,0,1,0,19.35,103,103,0,0,0-18.72,59.78A100.23,100.23,0,0,0,883,476.11a108.07,108.07,0,0,0,22.15,33,104,104,0,0,0,32.77,22.36,99.23,99.23,0,0,0,40.16,8.24H996.3a100.74,100.74,0,0,0,40.37-8.24,105,105,0,0,0,55.57-55.36,100,100,0,0,0,8-38.36,7.78,7.78,0,0,0,.21-1.09V417.72a16.94,16.94,0,0,1,16.94-16.93h7.2a16.94,16.94,0,0,0,16.93-16.94V348.26A16.93,16.93,0,0,0,1124.63,331.33Z" transform="translate(-17.21 -50.5)"/><path class="cls-2" d="M1072.08,292.43l-15.31,6,23,1.81,3.12-2.77s0-2.72-.08-4.72S1072.08,292.43,1072.08,292.43Z" transform="translate(-17.21 -50.5)"/></svg>