<svg width="488.9" height="488.9" xmlns="http://www.w3.org/2000/svg">

 <g>
  <title>background</title>
  <rect fill="none" id="canvas_background" height="602" width="802" y="-1" x="-1"/>
 </g>
 <g>
  <title>Layer 1</title>
  <g id="svg_1">
   <g id="svg_2">
    <path fill="#ffffff" id="svg_3" d="m239.15,0c31.9,0 57.7,25.8 57.7,57.7s-25.8,57.7 -57.7,57.7s-57.7,-25.8 -57.7,-57.7s25.8,-57.7 57.7,-57.7zm52.5,151.6l-1.5,0l-92.8,0l-3.4,0c-19,0 -34.3,15.4 -34.3,34.3l0,0c0,19 15.4,34.3 34.3,34.3l3.4,0l0,200l-37.7,0l0,68.7l169.6,0l0,-68.7l-37.5,0l0,-268.6l-0.1,0z"/>
   </g>
  </g>
  <g id="svg_4"/>
  <g id="svg_5"/>
  <g id="svg_6"/>
  <g id="svg_7"/>
  <g id="svg_8"/>
  <g id="svg_9"/>
  <g id="svg_10"/>
  <g id="svg_11"/>
  <g id="svg_12"/>
  <g id="svg_13"/>
  <g id="svg_14"/>
  <g id="svg_15"/>
  <g id="svg_16"/>
  <g id="svg_17"/>
  <g id="svg_18"/>
 </g>
</svg>