<svg width="35" height="35" xmlns="http://www.w3.org/2000/svg">

 <g>
  <title>background</title>
  <rect fill="none" id="canvas_background" height="602" width="802" y="-1" x="-1"/>
 </g>
 <g>
  <title>Layer 1</title>
  <g fill="none" id="svg_1">
   <path fill="#ffffff" id="svg_2" d="m25.302,0l-15.604,0c-1.3,0 -2.364,1.063 -2.364,2.364l0,30.271c0,1.301 1.064,2.365 2.364,2.365l15.604,0c1.3,0 2.364,-1.062 2.364,-2.364l0,-30.272c0,-1.301 -1.064,-2.364 -2.364,-2.364zm-10.298,1.704l4.992,0c0.158,0 0.286,0.128 0.286,0.287c0,0.158 -0.128,0.286 -0.286,0.286l-4.992,0c-0.158,0 -0.286,-0.128 -0.286,-0.286c0,-0.159 0.128,-0.287 0.286,-0.287zm2.496,32.114c-0.653,0 -1.182,-0.529 -1.182,-1.183s0.529,-1.182 1.182,-1.182s1.182,0.528 1.182,1.182s-0.529,1.183 -1.182,1.183zm8.521,-3.193l-17.042,0l0,-26.876l17.042,0l0,26.876z"/>
  </g>
  <g id="svg_3"/>
  <g id="svg_4"/>
  <g id="svg_5"/>
  <g id="svg_6"/>
  <g id="svg_7"/>
  <g id="svg_8"/>
  <g id="svg_9"/>
  <g id="svg_10"/>
  <g id="svg_11"/>
  <g id="svg_12"/>
  <g id="svg_13"/>
  <g id="svg_14"/>
  <g id="svg_15"/>
  <g id="svg_16"/>
  <g id="svg_17"/>
 </g>
</svg>