<?xml version="1.0" standalone="no"?>
<!DOCTYPE svg PUBLIC "-//W3C//DTD SVG 20010904//EN"
 "http://www.w3.org/TR/2001/REC-SVG-20010904/DTD/svg10.dtd">
<svg version="1.0" xmlns="http://www.w3.org/2000/svg"
 width="1381.000000pt" height="1381.000000pt" viewBox="0 0 1381.000000 1381.000000"
 preserveAspectRatio="xMidYMid meet">
<metadata>
Created by potrace 1.11, written by Peter Selinger 2001-2013
</metadata>
<g transform="translate(0.000000,1381.000000) scale(0.100000,-0.100000)"
fill="#000000" stroke="none">
<path d="M220 13486 c-97 -27 -148 -70 -189 -156 l-26 -55 -2 -3735 c-2 -4082
-6 -3797 55 -3885 41 -60 109 -101 189 -115 49 -8 268 -11 778 -8 666 3 713 4
750 21 91 42 143 106 170 206 10 40 13 487 13 2336 0 2162 1 2287 18 2306 21
24 66 25 87 2 13 -15 47 -127 63 -207 2 -10 21 -91 43 -180 22 -88 72 -294
111 -456 39 -162 75 -311 80 -330 6 -19 28 -109 49 -200 41 -172 113 -466 207
-850 31 -124 57 -234 60 -245 2 -11 15 -65 28 -120 47 -189 127 -520 131 -536
2 -8 11 -46 20 -83 9 -37 18 -72 19 -79 2 -7 6 -23 9 -37 9 -34 142 -578 173
-710 97 -405 148 -602 168 -645 25 -56 90 -126 139 -151 80 -42 112 -44 602
-41 l470 2 56 28 c31 15 72 42 91 60 75 71 86 103 212 622 30 127 74 307 97
400 23 94 42 175 44 180 1 6 5 21 8 35 7 27 86 355 92 380 2 8 15 62 30 120
22 86 55 224 80 335 3 11 16 66 31 123 14 57 27 111 29 120 4 20 122 505 132
542 3 14 7 30 9 35 2 6 6 24 9 40 3 17 8 38 11 47 3 9 7 25 9 35 2 10 26 111
54 226 28 114 74 300 102 415 28 114 52 215 55 225 6 27 8 32 104 427 50 206
93 383 95 393 15 69 37 97 75 97 15 0 34 -8 43 -18 15 -17 17 -402 22 -4913 7
-5297 3 -4958 59 -5047 27 -43 74 -81 132 -109 37 -17 84 -18 775 -20 660 -3
741 -1 785 14 127 42 195 132 210 273 1 14 3 1046 3 2295 2 2468 -2 2308 56
2308 51 -1 60 -21 129 -301 66 -270 220 -902 232 -955 6 -27 10 -43 54 -222
23 -93 43 -177 45 -185 3 -14 62 -255 156 -640 23 -91 42 -174 45 -184 2 -11
17 -74 33 -140 17 -67 53 -215 81 -331 28 -115 67 -275 86 -355 20 -80 37
-152 39 -161 2 -9 8 -33 14 -55 14 -52 121 -492 127 -524 3 -14 10 -43 16 -65
5 -22 11 -47 13 -55 2 -8 11 -44 20 -80 9 -36 18 -72 20 -80 24 -119 90 -352
110 -386 45 -77 122 -137 206 -161 13 -4 229 -9 479 -10 419 -3 461 -2 522 16
100 27 169 85 213 178 21 43 38 102 70 238 1 6 5 21 8 35 6 22 65 262 168 690
17 69 32 132 34 140 2 8 24 101 50 205 72 295 133 546 171 705 33 139 44 183
50 205 1 6 23 96 48 200 25 105 50 206 56 225 5 19 44 177 86 350 72 302 146
607 219 905 60 247 136 560 140 575 46 198 57 220 104 220 60 -1 56 53 58
-817 2 -439 4 -1480 5 -2313 3 -1681 -2 -1549 69 -1645 24 -31 54 -55 99 -77
l65 -33 731 -2 c658 -3 736 -1 780 14 115 39 177 107 203 223 7 30 11 1266 11
3750 0 3910 2 3750 -43 3836 -25 49 -83 99 -140 120 -50 18 -90 19 -1337 19
l-1285 0 -57 -27 c-68 -32 -127 -90 -161 -160 -14 -29 -48 -147 -77 -263 -57
-230 -59 -240 -66 -273 -2 -12 -34 -142 -70 -289 -36 -147 -67 -274 -69 -282
-2 -9 -28 -117 -59 -241 -156 -634 -188 -767 -192 -790 -3 -14 -11 -46 -19
-72 -8 -27 -12 -48 -10 -48 2 0 -2 -18 -10 -40 -8 -22 -14 -43 -14 -45 1 -3
-14 -64 -31 -136 -17 -72 -33 -138 -35 -147 -2 -10 -27 -109 -55 -222 -28
-113 -64 -261 -80 -330 -61 -255 -79 -312 -109 -327 -38 -18 -73 9 -86 65 -3
9 -16 64 -30 122 -14 58 -28 114 -30 125 -3 11 -25 103 -51 205 -25 102 -47
192 -49 200 -2 8 -13 56 -25 105 -12 50 -23 97 -25 105 -2 8 -27 110 -55 225
-29 116 -53 217 -55 225 -2 8 -20 80 -39 160 -20 79 -38 154 -41 165 -7 36
-55 229 -65 265 -5 19 -19 76 -31 125 -11 50 -51 216 -89 370 -38 154 -87 357
-110 450 -97 402 -134 543 -158 593 -32 69 -91 128 -160 160 l-57 27 -427 3
-428 3 -1 2462 c0 1354 -3 2476 -5 2492 -21 135 -85 213 -205 249 -48 14 -187
16 -1309 15 -1176 0 -1258 -2 -1307 -18 -95 -32 -159 -92 -201 -186 -13 -29
-57 -181 -66 -227 -2 -13 -12 -52 -21 -88 -9 -36 -18 -72 -20 -80 -2 -8 -29
-118 -60 -245 -31 -126 -59 -239 -61 -250 -2 -11 -10 -47 -18 -80 -108 -438
-168 -685 -172 -705 -3 -14 -9 -38 -14 -55 -5 -16 -18 -68 -29 -115 -11 -47
-27 -114 -36 -150 -17 -66 -22 -86 -29 -117 -29 -124 -39 -163 -47 -193 -6
-19 -12 -42 -13 -50 -2 -8 -6 -26 -9 -40 -4 -14 -30 -119 -58 -235 -27 -115
-73 -302 -100 -415 -28 -113 -52 -212 -54 -220 -39 -172 -54 -213 -85 -230
-43 -23 -78 21 -101 125 -15 72 -12 60 -39 165 -11 47 -23 96 -26 109 -3 13
-22 94 -44 180 -35 140 -106 433 -115 471 -2 8 -35 146 -75 305 -39 160 -74
301 -76 315 -3 14 -8 34 -11 45 -4 11 -8 22 -8 25 -3 11 -29 126 -31 135 -1 6
-32 132 -69 280 -36 149 -82 335 -101 415 -19 80 -42 171 -50 203 -9 32 -17
66 -19 75 -2 9 -28 121 -60 247 -31 127 -58 240 -61 251 -40 193 -120 297
-263 340 -64 19 -2521 19 -2591 0z"/>
<path d="M9485 12073 c-254 -43 -436 -134 -606 -305 -143 -144 -260 -371 -284
-548 -4 -30 -9 -64 -11 -75 -3 -11 -4 -60 -4 -110 0 -216 49 -379 169 -568 36
-58 43 -77 44 -122 1 -45 -5 -62 -40 -116 -78 -122 -128 -243 -157 -382 -16
-77 -20 -302 -6 -362 5 -22 11 -54 15 -72 10 -58 56 -176 102 -261 67 -124
153 -227 275 -328 44 -37 174 -112 238 -138 161 -66 257 -80 515 -79 144 1
187 5 283 27 187 42 359 134 495 265 110 106 198 236 251 371 54 140 67 218
71 450 3 155 8 179 50 223 37 39 67 48 162 53 93 3 138 26 176 86 19 31 21 49
22 243 1 116 -2 226 -7 245 -15 54 -68 105 -121 116 -12 3 -204 5 -427 5 -430
1 -444 0 -496 -47 -53 -49 -53 -48 -54 -564 0 -514 -1 -524 -54 -614 -33 -56
-86 -103 -156 -135 -49 -23 -70 -26 -190 -29 -198 -6 -274 15 -361 100 -106
103 -135 258 -71 390 17 34 42 75 55 89 22 24 86 51 147 63 93 18 141 26 185
31 126 14 175 39 206 103 20 41 22 59 21 253 0 233 -4 260 -38 306 -32 43 -72
60 -169 73 -44 6 -91 12 -105 15 -14 2 -41 6 -60 9 -64 10 -164 48 -185 70
-126 136 -118 358 18 483 119 110 276 128 413 48 105 -62 173 -180 174 -304 0
-46 37 -107 80 -134 33 -21 45 -22 265 -22 257 0 267 2 315 73 22 31 25 46 25
126 -1 105 -8 155 -34 246 -81 283 -276 519 -536 648 -89 44 -187 79 -243 88
-20 3 -57 10 -81 15 -41 9 -227 10 -276 2z"/>
</g>
</svg>
